<svg width="29" height="50" viewBox="0 0 29 50" fill="none" xmlns="http://www.w3.org/2000/svg">
<path d="M28.359 33.8683C28.359 36.2682 28.359 38.4583 28.3445 40.6483C28.3286 40.7592 28.2882 40.8652 28.2263 40.9586C28.1643 41.0521 28.0824 41.1306 27.9863 41.1886C23.6174 43.948 19.2388 46.699 14.8505 49.4418C14.7674 49.4704 14.6816 49.4899 14.5943 49.5L6.62286 44.5007C4.9361 43.441 3.24102 42.3896 1.57718 41.3132C1.31063 41.1408 1.0295 40.8603 1.02326 40.6296C0.985772 38.4396 1.00035 36.2495 1.00035 33.8704L14.6755 42.4519L28.3549 33.8683" fill="#0ABF53"/>
<path d="M28.255 3.63964C28.255 4.2606 28.0704 4.86762 27.7247 5.38393C27.3789 5.90024 26.8875 6.30266 26.3126 6.54029C25.7376 6.77792 25.1049 6.8401 24.4946 6.71895C23.8842 6.59781 23.3236 6.29879 22.8835 5.8597C22.4435 5.42061 22.1438 4.86118 22.0224 4.25215C21.901 3.64312 21.9633 3.01185 22.2014 2.43815C22.4396 1.86446 22.8429 1.37411 23.3603 1.02912C23.8778 0.684137 24.4861 0.5 25.1084 0.5C25.9429 0.5 26.7433 0.830783 27.3334 1.41958C27.9234 2.00838 28.255 2.80696 28.255 3.63964Z" fill="#0ABF53"/>
<path d="M14.6813 6.7793C11.9963 6.77889 9.37147 7.57297 7.13876 9.06112C4.90605 10.5493 3.16576 12.6647 2.13796 15.1397C1.11016 17.6148 0.841032 20.3385 1.3646 22.9662C1.88817 25.5939 3.18092 28.0077 5.07937 29.9023C6.97781 31.7968 9.39668 33.0871 12.0301 33.61C14.6635 34.1328 17.3931 33.8647 19.8738 32.8395C22.3544 31.8143 24.4747 30.0782 25.9665 27.8506C27.4582 25.623 28.2545 23.004 28.2545 20.3248C28.2547 18.5461 27.9039 16.7847 27.2219 15.1413C26.5399 13.4979 25.5401 12.0047 24.2797 10.7468C23.0193 9.48897 21.5229 8.49118 19.876 7.81043C18.2291 7.12968 16.4639 6.7793 14.6813 6.7793ZM14.5855 28.8544C12.8943 28.8544 11.2411 28.354 9.83498 27.4164C8.42883 26.4789 7.33291 25.1463 6.68581 23.5872C6.03872 22.0281 5.86951 20.3126 6.1996 18.6575C6.52969 17.0025 7.34424 15.4823 8.54024 14.2892C9.73624 13.0961 11.26 12.2837 12.9187 11.9548C14.5775 11.6258 16.2967 11.7951 17.8591 12.4411C19.4214 13.0872 20.7566 14.181 21.6959 15.5843C22.6352 16.9876 23.1363 18.6373 23.1359 20.3248C23.1354 22.5872 22.2343 24.7568 20.6308 26.3563C19.0274 27.9559 16.8529 28.8544 14.5855 28.8544Z" fill="#0ABF53"/>
</svg>
