<svg width="156" height="50" viewBox="0 0 156 50" fill="none" xmlns="http://www.w3.org/2000/svg">
<path d="M28.359 33.8683C28.359 36.2682 28.359 38.4583 28.3445 40.6483C28.3286 40.7592 28.2882 40.8652 28.2263 40.9586C28.1643 41.0521 28.0824 41.1306 27.9863 41.1886C23.6174 43.948 19.2388 46.699 14.8505 49.4418C14.7674 49.4704 14.6816 49.4899 14.5943 49.5L6.62286 44.5007C4.9361 43.441 3.24102 42.3896 1.57718 41.3132C1.31063 41.1408 1.0295 40.8603 1.02326 40.6296C0.985772 38.4396 1.00035 36.2495 1.00035 33.8704L14.6755 42.4519L28.3549 33.8683" fill="#0ABF53"/>
<path d="M28.255 3.63964C28.255 4.2606 28.0704 4.86762 27.7247 5.38393C27.3789 5.90024 26.8875 6.30266 26.3126 6.54029C25.7376 6.77792 25.1049 6.8401 24.4946 6.71895C23.8842 6.59781 23.3236 6.29879 22.8835 5.8597C22.4435 5.42061 22.1438 4.86118 22.0224 4.25215C21.901 3.64312 21.9633 3.01185 22.2014 2.43815C22.4396 1.86446 22.8429 1.37411 23.3603 1.02912C23.8778 0.684137 24.4861 0.5 25.1084 0.5C25.9429 0.5 26.7433 0.830783 27.3334 1.41958C27.9234 2.00838 28.255 2.80696 28.255 3.63964Z" fill="#0ABF53"/>
<path d="M14.6813 6.7793C11.9963 6.77889 9.37147 7.57297 7.13876 9.06112C4.90605 10.5493 3.16576 12.6647 2.13796 15.1397C1.11016 17.6148 0.841032 20.3385 1.3646 22.9662C1.88817 25.5939 3.18092 28.0077 5.07937 29.9023C6.97781 31.7968 9.39668 33.0871 12.0301 33.61C14.6635 34.1328 17.3931 33.8647 19.8738 32.8395C22.3544 31.8143 24.4747 30.0782 25.9665 27.8506C27.4582 25.623 28.2545 23.004 28.2545 20.3248C28.2547 18.5461 27.9039 16.7847 27.2219 15.1413C26.5399 13.4979 25.5401 12.0047 24.2797 10.7468C23.0193 9.48897 21.5229 8.49118 19.876 7.81043C18.2291 7.12968 16.4639 6.7793 14.6813 6.7793ZM14.5855 28.8544C12.8943 28.8544 11.2411 28.354 9.83498 27.4164C8.42883 26.4789 7.33291 25.1463 6.68581 23.5872C6.03872 22.0281 5.86951 20.3126 6.1996 18.6575C6.52969 17.0025 7.34424 15.4823 8.54024 14.2892C9.73624 13.0961 11.26 12.2837 12.9187 11.9548C14.5775 11.6258 16.2967 11.7951 17.8591 12.4411C19.4214 13.0872 20.7566 14.181 21.6959 15.5843C22.6352 16.9876 23.1363 18.6373 23.1359 20.3248C23.1354 22.5872 22.2343 24.7568 20.6308 26.3563C19.0274 27.9559 16.8529 28.8544 14.5855 28.8544Z" fill="#0ABF53"/>
<path d="M59.1951 13.0835V32.5572C59.1951 39.4453 53.8121 42.3542 48.3478 42.3542C44.0747 42.3542 40.4992 40.7564 38.6105 37.3944L43.8686 34.3691C44.6495 35.8048 45.8406 36.9518 48.554 36.9518C51.4298 36.9518 53.1957 35.4766 53.1957 32.5655V30.6705C51.84 32.3515 49.8638 33.3364 47.1983 33.3364C41.3676 33.3364 37.0903 28.5801 37.0903 22.9221C37.0903 17.2641 41.3634 12.5079 47.1983 12.5079C49.868 12.5079 51.84 13.4928 53.1957 15.1738V13.0835H59.1951ZM53.1957 22.9221C53.1957 20.0921 51.1424 18.1659 48.225 18.1659C45.3075 18.1659 43.2522 20.0921 43.2522 22.9221C43.2522 25.7522 45.3075 27.6784 48.225 27.6784C51.1424 27.6784 53.1957 25.7501 53.1957 22.9221Z" fill="#00112C"/>
<path d="M69.8783 6.7793H63.7144V33.6771H69.8783V6.7793Z" fill="#00112C"/>
<path d="M73.2603 22.8536C73.2603 16.7447 78.1081 12.03 84.1492 12.03C90.1902 12.03 95.036 16.7447 95.036 22.8536C95.036 28.9625 90.1882 33.6771 84.1492 33.6771C78.1102 33.6771 73.2603 28.9666 73.2603 22.8536ZM88.8783 22.8536C88.8783 19.9446 86.823 18.0143 84.1533 18.0143C81.4837 18.0143 79.4283 19.9425 79.4283 22.8536C79.4283 25.7647 81.4816 27.6908 84.1533 27.6908C86.8251 27.6908 88.8783 25.7647 88.8783 22.8536Z" fill="#00112C"/>
<path d="M120.739 22.7102C120.739 28.8191 116.301 33.5338 110.92 33.5338C108.168 33.5338 106.154 32.5925 104.798 31.0403V33.5338H98.6343V6.7793H104.798V14.3884C106.154 12.83 108.168 11.895 110.92 11.895C116.301 11.895 120.739 16.6096 120.739 22.7185V22.7102ZM114.577 22.7185C114.577 19.6454 112.522 17.7171 109.688 17.7171C106.854 17.7171 104.798 19.6454 104.798 22.7185C104.798 25.7917 106.858 27.7199 109.702 27.7199C112.547 27.7199 114.592 25.7917 114.592 22.7165" fill="#00112C"/>
<path d="M145.312 12.5723V33.6438H139.154V31.1504C137.798 32.7088 135.785 33.6438 133.032 33.6438C127.649 33.6438 123.211 28.9292 123.211 22.8203C123.211 16.7114 127.649 11.9967 133.025 11.9967C135.778 11.9967 137.792 12.9401 139.148 14.4901V12.5723H145.312ZM139.15 22.8203C139.15 19.7471 137.094 17.8189 134.26 17.8189C131.426 17.8189 129.371 19.7471 129.371 22.8203C129.371 25.8934 131.428 27.8237 134.275 27.8237C137.121 27.8237 139.164 25.8955 139.164 22.8203" fill="#00112C"/>
<path d="M156 6.7793H149.836V33.5816H156V6.7793Z" fill="#00112C"/>
</svg>
