<svg width="456" height="443" viewBox="0 0 456 443" fill="none" xmlns="http://www.w3.org/2000/svg">
<path d="M300.231 20.5144C246.575 -4.26018 181.931 -5.50004 126.194 13.189C69.968 32.06 11.8193 79.6527 6.50718 142.863C2.57146 189.25 39.0395 218.199 45.4208 261.447C49.2997 287.712 37.0716 310.359 35.1834 335.725C33.5795 357.338 41.3145 377.938 55.6583 393.954C100.021 443.73 186.584 462.965 238.715 413.973C259.19 394.693 277.39 368.178 305.168 358.68C361.007 339.616 446.342 334.793 454.748 260.287C459.867 214.878 431.918 172.802 408.441 136.505C379.036 91.2097 351.168 44.0492 300.231 20.5144Z" fill="#0ABF53"/>
<path opacity="0.7" d="M300.231 20.5144C246.575 -4.26018 181.931 -5.50004 126.194 13.189C69.968 32.06 11.8193 79.6527 6.50718 142.863C2.57146 189.25 39.0395 218.199 45.4208 261.447C49.2997 287.712 37.0716 310.359 35.1834 335.725C33.5795 357.338 41.3145 377.938 55.6583 393.954C100.021 443.73 186.584 462.965 238.715 413.973C259.19 394.693 277.39 368.178 305.168 358.68C361.007 339.616 446.342 334.793 454.748 260.287C459.867 214.878 431.918 172.802 408.441 136.505C379.036 91.2097 351.168 44.0492 300.231 20.5144Z" fill="white"/>
<path d="M300.231 20.5144C246.575 -4.26018 181.931 -5.50004 126.194 13.189C69.968 32.06 11.8193 79.6527 6.50718 142.863C2.57146 189.25 39.0395 218.199 45.4208 261.447C49.2997 287.712 37.0716 310.359 35.1834 335.725C33.5795 357.338 41.3145 377.938 55.6583 393.954C100.021 443.73 186.584 462.965 238.715 413.973C259.19 394.693 277.39 368.178 305.168 358.68C361.007 339.616 446.342 334.793 454.748 260.287C459.867 214.878 431.918 172.802 408.441 136.505C379.036 91.2097 351.168 44.0492 300.231 20.5144Z" fill="#0ABF53"/>
<path opacity="0.7" d="M300.231 20.5144C246.575 -4.26018 181.931 -5.50004 126.194 13.189C69.968 32.06 11.8193 79.6527 6.50718 142.863C2.57146 189.25 39.0395 218.199 45.4208 261.447C49.2997 287.712 37.0716 310.359 35.1834 335.725C33.5795 357.338 41.3145 377.938 55.6583 393.954C100.021 443.73 186.584 462.965 238.715 413.973C259.19 394.693 277.39 368.178 305.168 358.68C361.007 339.616 446.342 334.793 454.748 260.287C459.867 214.878 431.918 172.802 408.441 136.505C379.036 91.2097 351.168 44.0492 300.231 20.5144Z" fill="white"/>
<path d="M428.642 277.042H5.49463V280.898H428.642V277.042Z" fill="#00112C"/>
<path d="M302.995 229.984C303.826 230.199 304.684 230.291 305.543 230.257C305.543 230.257 305.156 229.119 305.122 229.006C304.724 228.187 303.472 226.822 302.46 226.958C302.29 226.984 302.128 227.045 301.985 227.139C301.841 227.232 301.719 227.355 301.626 227.499C301.533 227.643 301.473 227.806 301.448 227.975C301.423 228.145 301.435 228.318 301.482 228.482C301.61 228.827 301.812 229.14 302.073 229.4C302.334 229.659 302.649 229.858 302.995 229.984Z" fill="#00112C"/>
<path d="M326.597 223.807C325.574 223.694 324.322 225.093 323.993 225.923C323.993 226.003 323.583 227.186 323.606 227.186L322.98 227.914C322.582 228.403 322.139 228.96 321.695 229.597C321.208 230.284 320.76 230.998 320.353 231.736C319.899 232.558 319.519 233.418 319.215 234.306C319.215 233.999 319.215 233.169 319.215 233.101C319.09 232.191 318.328 230.496 317.327 230.314C317.158 230.288 316.986 230.298 316.822 230.342C316.657 230.387 316.504 230.465 316.371 230.572C316.239 230.679 316.13 230.812 316.051 230.964C315.973 231.115 315.927 231.281 315.916 231.451C315.931 231.82 316.027 232.181 316.196 232.509C316.365 232.837 316.603 233.124 316.895 233.351C317.597 233.814 318.363 234.17 319.17 234.409C318.885 235.322 318.66 236.253 318.499 237.196C318.396 237.742 318.317 238.333 318.248 238.856C318.248 238.595 318.248 238.367 318.248 238.333C318.123 237.423 317.361 235.74 316.36 235.558C316.191 235.53 316.019 235.539 315.853 235.582C315.688 235.626 315.534 235.704 315.401 235.812C315.268 235.919 315.159 236.053 315.081 236.205C315.003 236.357 314.959 236.524 314.95 236.695C314.965 237.064 315.061 237.424 315.23 237.752C315.399 238.08 315.637 238.368 315.928 238.595C316.631 239.051 317.397 239.399 318.203 239.63C318.203 239.835 318.146 240.051 318.123 240.267C317.998 241.302 317.884 242.326 317.736 243.327C317.68 243.691 317.623 244.032 317.554 244.385C317.564 244.233 317.564 244.081 317.554 243.93C317.441 243.02 316.679 241.325 315.666 241.143C315.498 241.115 315.326 241.124 315.161 241.167C314.997 241.211 314.843 241.29 314.711 241.397C314.579 241.505 314.471 241.639 314.394 241.791C314.318 241.943 314.274 242.11 314.267 242.28C314.282 242.649 314.377 243.01 314.546 243.338C314.715 243.666 314.954 243.953 315.245 244.18C315.908 244.628 316.638 244.97 317.407 245.192C317.338 245.545 317.259 245.897 317.168 246.239C317.077 246.58 317.054 246.694 316.986 246.921C316.917 247.149 316.838 247.376 316.758 247.604C316.61 248.025 316.451 248.468 316.292 248.878L315.962 249.697C316.019 249.344 316.11 248.661 316.11 248.559C316.105 247.759 315.889 246.974 315.484 246.284C315.49 246.193 315.49 246.102 315.484 246.011C315.463 245.843 315.407 245.68 315.319 245.535C315.231 245.39 315.114 245.265 314.974 245.168C314.834 245.072 314.676 245.006 314.509 244.974C314.342 244.943 314.17 244.948 314.005 244.987C313.016 245.249 312.379 246.989 312.333 247.899C312.333 247.956 312.333 248.548 312.39 248.912C312.39 248.707 312.299 248.491 312.242 248.275C312.14 247.831 312.026 247.399 311.901 246.933L311.696 246.25C311.628 246.023 311.537 245.795 311.457 245.556C311.264 245.022 311.037 244.487 310.798 243.952C311.596 243.788 312.363 243.5 313.073 243.099C313.383 242.896 313.645 242.628 313.841 242.314C314.038 242 314.164 241.647 314.21 241.279C314.215 241.109 314.185 240.939 314.12 240.781C314.055 240.623 313.958 240.48 313.835 240.362C313.712 240.244 313.565 240.153 313.404 240.096C313.243 240.038 313.072 240.015 312.902 240.028C311.878 240.142 310.991 241.768 310.809 242.667C310.809 242.724 310.729 243.384 310.707 243.736C310.559 243.418 310.422 243.099 310.263 242.781C309.808 241.871 309.319 240.949 308.83 240.039L308.386 239.198C309.217 239.024 310.018 238.729 310.764 238.322C311.075 238.118 311.338 237.848 311.535 237.532C311.731 237.215 311.856 236.86 311.901 236.49C311.905 236.32 311.873 236.15 311.807 235.993C311.741 235.835 311.642 235.693 311.518 235.576C311.393 235.459 311.246 235.37 311.084 235.314C310.923 235.258 310.752 235.236 310.582 235.25C309.569 235.364 308.682 236.991 308.5 237.889C308.5 237.958 308.398 238.902 308.386 239.141C308.068 238.526 307.749 237.901 307.465 237.287C307.072 236.446 306.738 235.58 306.464 234.693C307.3 234.523 308.105 234.228 308.853 233.817C309.162 233.611 309.423 233.341 309.62 233.025C309.816 232.709 309.942 232.355 309.99 231.986C309.994 231.815 309.962 231.646 309.896 231.488C309.83 231.331 309.731 231.189 309.607 231.072C309.482 230.955 309.335 230.865 309.173 230.809C309.012 230.753 308.841 230.732 308.671 230.746C307.658 230.86 306.771 232.486 306.578 233.385C306.578 233.453 306.475 234.522 306.475 234.659L306.418 234.5C306.164 233.607 305.993 232.694 305.906 231.77C305.85 231.258 305.815 230.769 305.804 230.291C306.635 230.219 307.449 230.015 308.216 229.688C308.541 229.517 308.827 229.279 309.052 228.988C309.278 228.698 309.439 228.362 309.524 228.005C309.546 227.838 309.534 227.668 309.488 227.507C309.441 227.345 309.363 227.194 309.256 227.064C309.149 226.934 309.017 226.827 308.868 226.75C308.718 226.673 308.554 226.628 308.386 226.617C307.362 226.617 306.305 228.141 306.02 229.006L305.827 229.916C305.827 229.699 305.827 229.483 305.827 229.279C305.827 228.494 305.827 227.788 305.918 227.163C305.918 226.799 305.986 226.48 306.02 226.173C306.719 225.726 307.345 225.174 307.874 224.535C308.087 224.233 308.231 223.888 308.296 223.525C308.361 223.161 308.345 222.788 308.25 222.431C308.193 222.27 308.103 222.122 307.986 221.999C307.868 221.875 307.725 221.778 307.567 221.713C307.409 221.649 307.239 221.618 307.069 221.624C306.898 221.631 306.731 221.673 306.578 221.748C305.668 222.215 305.44 224.023 305.577 224.956C305.577 225.036 305.941 226.23 305.952 226.23C305.952 226.526 305.872 226.833 305.827 227.174C305.827 227.8 305.702 228.517 305.69 229.29C305.659 230.132 305.678 230.975 305.747 231.815C305.818 232.753 305.975 233.682 306.214 234.591C306.054 234.329 305.577 233.635 305.531 233.59C304.928 232.896 303.37 231.906 302.426 232.316C302.27 232.385 302.131 232.486 302.018 232.613C301.904 232.74 301.819 232.89 301.767 233.052C301.716 233.214 301.699 233.386 301.718 233.555C301.738 233.724 301.793 233.887 301.88 234.033C302.096 234.333 302.375 234.582 302.697 234.763C303.019 234.944 303.377 235.052 303.745 235.08C304.594 235.076 305.437 234.946 306.248 234.693C306.509 235.612 306.832 236.513 307.215 237.389C307.442 237.901 307.681 238.413 307.931 238.913C307.783 238.697 307.647 238.515 307.624 238.492C307.021 237.798 305.463 236.809 304.519 237.207C304.363 237.277 304.224 237.38 304.11 237.508C303.996 237.636 303.911 237.786 303.86 237.949C303.808 238.113 303.791 238.285 303.811 238.455C303.83 238.625 303.886 238.789 303.973 238.936C304.189 239.235 304.468 239.484 304.79 239.664C305.112 239.845 305.47 239.954 305.838 239.982C306.664 239.983 307.485 239.856 308.272 239.607C308.363 239.8 308.454 239.994 308.557 240.187C309.023 241.12 309.49 242.041 309.922 242.963C310.07 243.281 310.206 243.611 310.354 243.93L310.092 243.554C309.49 242.872 307.92 241.882 306.976 242.28C306.821 242.352 306.683 242.455 306.57 242.583C306.458 242.712 306.374 242.863 306.323 243.026C306.273 243.189 306.257 243.36 306.278 243.53C306.298 243.699 306.354 243.863 306.441 244.009C306.658 244.308 306.937 244.557 307.259 244.738C307.581 244.918 307.938 245.027 308.307 245.056C309.105 245.055 309.898 244.936 310.661 244.703C310.798 245.033 310.934 245.374 311.048 245.704C311.162 246.034 311.207 246.148 311.264 246.375C311.321 246.603 311.389 246.842 311.457 247.069C311.56 247.501 311.674 247.956 311.765 248.389C311.856 248.821 311.89 248.969 311.947 249.253L311.469 248.252C310.98 247.479 309.581 246.261 308.58 246.523C308.416 246.568 308.263 246.647 308.132 246.756C308.002 246.865 307.896 247 307.821 247.153C307.747 247.306 307.706 247.473 307.702 247.643C307.697 247.813 307.729 247.982 307.795 248.138C307.959 248.468 308.193 248.758 308.483 248.986C308.772 249.214 309.108 249.375 309.467 249.458C310.3 249.586 311.148 249.586 311.981 249.458C312.083 249.935 312.174 250.39 312.242 250.834C312.515 252.358 312.686 253.632 312.788 254.531C312.788 254.69 312.788 254.838 312.788 254.963H309.694L310.832 276.974H316.087L317.225 254.963H314.347L314.415 254.838C314.813 254.019 315.359 252.836 315.951 251.426L316.519 249.981C317.344 250.165 318.19 250.23 319.033 250.174C319.392 250.119 319.735 249.989 320.041 249.793C320.346 249.597 320.607 249.34 320.808 249.037C320.882 248.884 320.923 248.718 320.929 248.548C320.935 248.379 320.905 248.21 320.842 248.052C320.779 247.895 320.683 247.752 320.562 247.634C320.44 247.516 320.296 247.424 320.137 247.365C319.158 247.035 317.68 248.138 317.134 248.878C317.134 248.878 316.804 249.435 316.622 249.754L316.861 249.128C317.008 248.707 317.156 248.286 317.304 247.82L317.509 247.149C317.582 246.913 317.642 246.674 317.691 246.432C317.827 245.875 317.93 245.295 318.032 244.737C318.792 245.04 319.594 245.224 320.41 245.283C320.779 245.283 321.144 245.201 321.478 245.044C321.812 244.887 322.108 244.658 322.343 244.373C322.441 244.233 322.508 244.074 322.541 243.907C322.573 243.739 322.57 243.567 322.531 243.4C322.493 243.234 322.42 243.078 322.317 242.942C322.214 242.805 322.083 242.693 321.934 242.61C321.024 242.144 319.386 243.008 318.737 243.657C318.737 243.657 318.282 244.214 318.066 244.498C318.066 244.157 318.169 243.804 318.214 243.452C318.339 242.439 318.442 241.404 318.544 240.381C318.544 240.062 318.601 239.744 318.635 239.425C319.422 239.746 320.255 239.942 321.103 240.005C321.472 240.005 321.835 239.924 322.169 239.769C322.503 239.614 322.799 239.388 323.037 239.107C323.135 238.967 323.202 238.808 323.235 238.64C323.267 238.473 323.264 238.3 323.225 238.134C323.187 237.968 323.113 237.811 323.01 237.675C322.908 237.539 322.777 237.426 322.628 237.343C321.718 236.866 320.08 237.742 319.431 238.379C319.431 238.379 318.783 239.175 318.646 239.368C318.715 238.674 318.794 237.992 318.908 237.309C319.038 236.394 319.236 235.489 319.5 234.602C320.289 234.918 321.121 235.114 321.968 235.182C322.336 235.182 322.7 235.101 323.034 234.946C323.368 234.791 323.664 234.565 323.902 234.284C323.999 234.144 324.067 233.985 324.099 233.817C324.132 233.65 324.128 233.477 324.09 233.311C324.051 233.145 323.978 232.988 323.875 232.852C323.772 232.716 323.642 232.603 323.492 232.52C322.582 232.043 320.944 232.919 320.296 233.556C320.296 233.612 319.613 234.409 319.5 234.568C319.503 234.515 319.503 234.462 319.5 234.409C319.783 233.523 320.14 232.663 320.569 231.838C320.808 231.383 321.058 230.962 321.308 230.553C322.042 230.948 322.832 231.228 323.651 231.383C324.019 231.421 324.391 231.379 324.74 231.259C325.09 231.139 325.409 230.945 325.676 230.689C325.787 230.56 325.87 230.409 325.919 230.246C325.968 230.083 325.983 229.912 325.963 229.743C325.943 229.574 325.888 229.411 325.801 229.265C325.714 229.118 325.598 228.991 325.46 228.892C324.607 228.335 322.889 229.017 322.173 229.586C322.173 229.586 321.763 229.972 321.513 230.234L321.854 229.699C322.286 229.051 322.719 228.482 323.105 227.982L323.731 227.22C324.559 227.234 325.384 227.119 326.177 226.878C326.521 226.743 326.831 226.535 327.086 226.268C327.342 226.001 327.536 225.681 327.655 225.332C327.701 225.161 327.708 224.983 327.678 224.809C327.648 224.635 327.58 224.47 327.479 224.325C327.378 224.18 327.247 224.058 327.095 223.969C326.943 223.88 326.773 223.824 326.597 223.807ZM315.302 251.221C314.677 252.631 314.165 253.792 313.71 254.633C313.619 254.793 313.55 254.94 313.482 255.066H313.414C313.414 254.922 313.391 254.751 313.346 254.554C313.221 253.644 313.027 252.358 312.72 250.823C312.629 250.345 312.515 249.822 312.39 249.299C312.873 249.106 313.343 248.885 313.801 248.639C314.417 249.167 315.102 249.611 315.837 249.958L315.302 251.221Z" fill="#00112C"/>
<path d="M321.217 230.336C321.217 230.336 321.547 229.131 321.559 229.051C321.684 228.152 321.399 226.321 320.421 225.878C320.266 225.807 320.098 225.769 319.928 225.768C319.757 225.767 319.589 225.802 319.433 225.871C319.277 225.94 319.138 226.041 319.024 226.167C318.91 226.294 318.824 226.443 318.772 226.605C318.688 226.966 318.684 227.34 318.761 227.701C318.838 228.063 318.993 228.403 319.215 228.698C319.801 229.337 320.475 229.889 321.217 230.336Z" fill="#00112C"/>
<path d="M58.8319 232.259C59.6218 232.468 60.4381 232.56 61.2547 232.532C61.2547 232.532 60.8793 231.394 60.8452 231.338C60.4698 230.553 59.2869 229.256 58.32 229.392C58.1585 229.415 58.0038 229.473 57.8664 229.56C57.729 229.648 57.6121 229.765 57.5237 229.902C57.4352 230.039 57.3772 230.193 57.3537 230.355C57.3302 230.516 57.3416 230.68 57.3872 230.837C57.5124 231.164 57.7061 231.459 57.9553 231.705C58.2045 231.95 58.5034 232.139 58.8319 232.259Z" fill="#00112C"/>
<path d="M81.2972 226.424C80.3303 226.321 79.1701 227.641 78.8175 228.437C78.8175 228.517 78.4307 229.643 78.4535 229.643C78.2601 229.847 78.0667 230.075 77.862 230.325C77.4866 230.791 77.0543 231.326 76.6335 231.929C76.2126 232.532 75.769 233.214 75.3595 233.954C74.9076 234.737 74.5269 235.559 74.222 236.411C74.222 236.126 74.222 235.33 74.222 235.273C74.1082 234.409 73.3802 232.805 72.4247 232.634C72.26 232.606 72.0911 232.614 71.9299 232.658C71.7687 232.703 71.6193 232.782 71.4922 232.89C71.3651 232.999 71.2636 233.134 71.1947 233.287C71.1259 233.439 71.0914 233.605 71.0939 233.772C71.1044 234.122 71.1925 234.467 71.3518 234.779C71.5111 235.092 71.7377 235.366 72.0152 235.58C72.6884 236.023 73.4248 236.36 74.1992 236.581C73.9322 237.451 73.7195 238.336 73.5622 239.232C73.4712 239.755 73.3916 240.29 73.3234 240.813C73.3234 240.563 73.3234 240.346 73.3234 240.312C73.2096 239.448 72.4816 237.844 71.5261 237.673C71.3661 237.646 71.202 237.652 71.0448 237.694C70.8877 237.735 70.7411 237.809 70.615 237.911C70.4889 238.013 70.3862 238.142 70.3138 238.287C70.2414 238.432 70.201 238.592 70.1953 238.754C70.2089 239.104 70.2983 239.447 70.4574 239.759C70.6165 240.072 70.8414 240.346 71.1166 240.563C71.7688 241 72.487 241.331 73.2437 241.541C73.2437 241.746 73.2437 241.95 73.1641 242.155C73.0504 243.133 72.9366 244.112 72.8001 245.067L72.6295 246.068C72.6295 245.841 72.6295 245.659 72.6295 245.636C72.5157 244.771 71.7878 243.167 70.8323 242.985C70.6675 242.957 70.4986 242.965 70.3374 243.01C70.1762 243.054 70.0268 243.133 69.8997 243.242C69.7726 243.35 69.6711 243.486 69.6022 243.638C69.5334 243.79 69.4989 243.956 69.5014 244.123C69.5136 244.472 69.6025 244.814 69.7617 245.124C69.921 245.435 70.1467 245.707 70.4228 245.92C71.0564 246.344 71.7505 246.67 72.4816 246.887C72.4134 247.217 72.3451 247.558 72.2541 247.877C72.2055 248.096 72.1448 248.312 72.0721 248.525L71.8674 249.173C71.7195 249.572 71.5716 249.992 71.4237 250.379C71.2759 250.766 71.2076 250.914 71.1053 251.164C71.1621 250.834 71.2531 250.174 71.2531 250.118C71.2411 249.354 71.0335 248.606 70.6503 247.945C70.6559 247.858 70.6559 247.77 70.6503 247.683C70.6328 247.52 70.5803 247.363 70.4963 247.222C70.4124 247.081 70.299 246.96 70.164 246.868C70.029 246.775 69.8755 246.712 69.714 246.684C69.5525 246.656 69.3868 246.663 69.2284 246.705C68.2956 246.955 67.6928 248.616 67.6473 249.481C67.6473 249.537 67.6473 250.095 67.6473 250.447L67.5108 249.833C67.4084 249.412 67.2946 249.003 67.1809 248.559C67.1126 248.343 67.0444 248.127 66.9875 247.911C66.9306 247.695 66.8283 247.467 66.76 247.251C66.5667 246.739 66.3505 246.227 66.1344 245.727C66.8956 245.564 67.628 245.288 68.307 244.908C68.5967 244.712 68.841 244.456 69.0235 244.158C69.206 243.86 69.3224 243.526 69.3649 243.179C69.3657 243.019 69.333 242.861 69.2688 242.716C69.2047 242.57 69.1106 242.439 68.9926 242.331C68.8746 242.224 68.7354 242.143 68.5839 242.093C68.4325 242.043 68.2723 242.025 68.1136 242.041C67.1468 242.144 66.305 243.691 66.123 244.544C66.123 244.601 66.0548 245.226 66.032 245.568C65.8955 245.272 65.759 244.965 65.6112 244.658C65.1789 243.782 64.7125 242.917 64.2462 242.041L63.8253 241.245C64.6207 241.083 65.3875 240.803 66.1003 240.415C66.3913 240.218 66.6364 239.96 66.819 239.66C67.0015 239.36 67.1172 239.023 67.1581 238.674C67.1589 238.515 67.1262 238.357 67.0621 238.211C66.9979 238.065 66.9038 237.934 66.7858 237.827C66.6678 237.72 66.5286 237.638 66.3772 237.588C66.2258 237.538 66.0656 237.521 65.9069 237.537C64.94 237.651 64.0983 239.198 63.9163 240.051C63.9163 240.108 63.8253 241.018 63.8139 241.245C63.5068 240.654 63.211 240.108 62.938 239.471C62.5704 238.672 62.2514 237.851 61.9825 237.014C62.7789 236.849 63.5459 236.565 64.2575 236.172C64.5488 235.978 64.7943 235.722 64.977 235.424C65.1596 235.125 65.2751 234.791 65.3154 234.443C65.3162 234.283 65.2835 234.126 65.2193 233.98C65.1552 233.834 65.0611 233.703 64.9431 233.595C64.8251 233.488 64.6859 233.407 64.5345 233.357C64.3831 233.307 64.2228 233.289 64.0642 233.305C63.0973 233.408 62.2556 234.955 62.0849 235.808C62.0849 235.876 61.9826 236.843 61.9712 237.025V236.877C61.7302 236.029 61.5665 235.161 61.4821 234.284C61.4821 233.794 61.4024 233.328 61.3797 232.873C62.1628 232.802 62.9302 232.61 63.6547 232.304C63.9666 232.142 64.2393 231.913 64.4535 231.634C64.6676 231.355 64.8182 231.032 64.8945 230.689C64.9193 230.526 64.9083 230.36 64.8623 230.201C64.8163 230.043 64.7365 229.896 64.6283 229.772C64.5201 229.648 64.3861 229.548 64.2357 229.481C64.0852 229.413 63.9219 229.379 63.757 229.381C62.7788 229.381 61.7664 230.826 61.4821 231.656C61.4821 231.656 61.3683 232.168 61.3001 232.52C61.3001 232.316 61.3001 232.1 61.3001 231.906C61.3001 231.167 61.3001 230.496 61.3911 229.893C61.3911 229.552 61.4593 229.245 61.4934 228.96C62.1551 228.535 62.7462 228.01 63.2452 227.402C63.4502 227.116 63.5892 226.788 63.6522 226.442C63.7151 226.095 63.7004 225.74 63.6092 225.4C63.5565 225.247 63.4718 225.107 63.3608 224.989C63.2498 224.872 63.1149 224.779 62.9653 224.718C62.8157 224.657 62.6547 224.628 62.4931 224.634C62.3314 224.639 62.1729 224.679 62.028 224.751C61.1522 225.195 60.8906 226.947 61.0726 227.8C61.0726 227.879 61.4138 229.017 61.4252 229.006C61.4252 229.279 61.3456 229.574 61.3114 229.904C61.3114 230.496 61.1863 231.178 61.1749 231.918C61.1249 232.713 61.1249 233.511 61.1749 234.306C61.2377 235.198 61.3862 236.082 61.6186 236.945L60.9702 236.001C60.4014 235.341 58.9113 234.397 58.0127 234.784C57.8637 234.849 57.7305 234.946 57.622 235.067C57.5136 235.188 57.4323 235.331 57.3838 235.487C57.3353 235.642 57.3206 235.806 57.3408 235.967C57.361 236.128 57.4156 236.284 57.5008 236.422C57.705 236.705 57.9686 236.941 58.2731 237.112C58.5776 237.283 58.9158 237.385 59.2639 237.412C60.0704 237.413 60.8723 237.291 61.6413 237.048C61.8967 237.92 62.2082 238.775 62.5741 239.607C62.7788 240.096 63.0063 240.585 63.2452 241.063L62.9608 240.654C62.392 239.994 60.9019 239.061 60.0033 239.436C59.8544 239.502 59.7212 239.598 59.6127 239.719C59.5042 239.841 59.4229 239.984 59.3744 240.139C59.3259 240.294 59.3113 240.458 59.3314 240.619C59.3516 240.781 59.4062 240.936 59.4914 241.074C59.695 241.359 59.9582 241.596 60.2627 241.769C60.5672 241.942 60.9056 242.047 61.2546 242.075C62.026 242.069 62.7923 241.95 63.5295 241.723L63.8025 242.269C64.2462 243.156 64.7012 244.032 65.1107 244.908L65.5202 245.829L65.2699 245.477C64.7012 244.817 63.211 243.873 62.3124 244.259C62.1635 244.325 62.0303 244.421 61.9218 244.542C61.8133 244.664 61.732 244.807 61.6835 244.962C61.635 245.117 61.6204 245.281 61.6406 245.442C61.6607 245.604 61.7153 245.759 61.8006 245.897C62.0042 246.182 62.2673 246.419 62.5718 246.592C62.8763 246.765 63.2147 246.87 63.5637 246.898C64.3352 246.904 65.1028 246.789 65.8387 246.557C65.9638 246.876 66.0889 247.194 66.2027 247.513C66.3164 247.831 66.3505 247.934 66.4074 248.161C66.4643 248.389 66.5325 248.593 66.5894 248.809C66.6918 249.219 66.7942 249.651 66.8852 250.061L67.0558 250.891L66.6008 249.936C66.1344 249.208 64.8035 248.047 63.8594 248.286C63.7009 248.327 63.5531 248.402 63.4261 248.505C63.299 248.608 63.1958 248.738 63.1235 248.885C63.0511 249.032 63.0113 249.192 63.0068 249.356C63.0023 249.52 63.0332 249.683 63.0973 249.833C63.258 250.146 63.4846 250.419 63.7616 250.635C64.0385 250.851 64.3591 251.005 64.7012 251.084C65.4927 251.207 66.2984 251.207 67.0899 251.084C67.1809 251.528 67.2719 251.972 67.3402 252.393C67.5904 253.837 67.7496 255.054 67.852 255.907C67.852 256.067 67.852 256.192 67.852 256.328H64.9173L65.9865 277.247H70.9915L72.0607 256.328H69.3308V256.203C69.7061 255.418 70.2294 254.292 70.7868 252.916C70.9688 252.483 71.1507 252.017 71.3327 251.528C72.1138 251.718 72.92 251.783 73.7215 251.721C74.0682 251.666 74.3987 251.536 74.6895 251.34C74.9804 251.143 75.2246 250.885 75.405 250.584C75.4791 250.439 75.5214 250.28 75.5289 250.118C75.5365 249.956 75.5091 249.794 75.4488 249.643C75.3884 249.492 75.2964 249.356 75.179 249.243C75.0615 249.131 74.9214 249.045 74.768 248.991C73.8466 248.684 72.493 249.731 71.9129 250.436L71.4351 251.266C71.5034 251.073 71.583 250.88 71.6512 250.675C71.7991 250.277 71.9356 249.867 72.0835 249.435C72.1517 249.219 72.2086 249.003 72.2769 248.787C72.3451 248.571 72.3906 248.343 72.4475 248.116C72.5726 247.581 72.675 247.046 72.766 246.5C73.4941 246.785 74.2612 246.957 75.041 247.012C75.3913 247.01 75.7372 246.933 76.0551 246.786C76.373 246.639 76.6556 246.425 76.8837 246.159C76.9812 246.027 77.0491 245.876 77.0825 245.715C77.116 245.554 77.1143 245.388 77.0775 245.228C77.0408 245.068 76.9699 244.918 76.8697 244.788C76.7694 244.658 76.6423 244.552 76.497 244.476C75.6325 244.032 74.0741 244.862 73.4599 245.477C73.4599 245.477 73.0276 246 72.8115 246.273C72.8115 245.943 72.9139 245.613 72.9594 245.283C73.0731 244.316 73.1755 243.327 73.2665 242.348C73.2665 242.053 73.2665 241.757 73.3575 241.45C74.1064 241.749 74.8965 241.934 75.7007 241.996C76.0511 241.994 76.3969 241.917 76.7148 241.77C77.0327 241.622 77.3153 241.409 77.5435 241.143C77.6385 241.01 77.704 240.859 77.7355 240.699C77.7671 240.539 77.7638 240.374 77.7261 240.216C77.6883 240.057 77.6169 239.909 77.5167 239.78C77.4165 239.651 77.2899 239.546 77.1453 239.471C76.2808 239.016 74.7339 239.846 74.1082 240.46C74.1082 240.46 73.494 241.211 73.3689 241.393C73.4371 240.733 73.5054 240.085 73.6077 239.436C73.7411 238.568 73.9311 237.709 74.1765 236.866C74.929 237.166 75.723 237.351 76.5311 237.412C76.8798 237.41 77.2239 237.332 77.5399 237.185C77.856 237.038 78.1366 236.824 78.3625 236.559C78.46 236.427 78.5278 236.275 78.5612 236.114C78.5947 235.954 78.593 235.788 78.5562 235.628C78.5195 235.468 78.4486 235.318 78.3484 235.188C78.2482 235.058 78.1211 234.951 77.9757 234.875C77.1112 234.431 75.5529 235.262 74.9386 235.876C74.9386 235.876 74.2789 236.684 74.1765 236.832C74.1815 236.779 74.1815 236.725 74.1765 236.672C74.4414 235.831 74.7841 235.016 75.2002 234.238C75.4164 233.806 75.6552 233.396 75.8941 233.01C76.6037 233.395 77.3725 233.661 78.1691 233.794C78.5175 233.836 78.8708 233.799 79.2033 233.687C79.5358 233.575 79.8392 233.39 80.0915 233.146C80.2009 233.025 80.2832 232.883 80.3327 232.727C80.3822 232.572 80.3978 232.408 80.3784 232.246C80.359 232.084 80.305 231.929 80.2202 231.79C80.1354 231.651 80.0216 231.531 79.8867 231.44C79.0791 230.894 77.4411 231.542 76.7586 232.088L76.133 232.714C76.2467 232.543 76.3491 232.361 76.4628 232.202C76.8723 231.588 77.2818 231.064 77.6003 230.575C77.8165 230.302 78.0098 230.063 78.2032 229.847C78.9737 229.85 79.7403 229.739 80.4782 229.517C80.8045 229.388 81.0992 229.19 81.3425 228.937C81.5858 228.684 81.7721 228.381 81.8887 228.05C81.9698 227.907 82.019 227.748 82.0327 227.584C82.0464 227.42 82.0244 227.255 81.9682 227.1C81.912 226.946 81.8228 226.805 81.707 226.688C81.5912 226.571 81.4513 226.481 81.2972 226.424ZM70.5593 252.483C69.9678 253.837 69.4218 254.94 69.035 255.703C68.9668 255.862 68.8871 255.998 68.8303 256.123H68.762C68.762 255.964 68.762 255.805 68.6938 255.623C68.58 254.758 68.3866 253.541 68.1023 252.085C68.0113 251.619 67.9089 251.13 67.7951 250.629C68.2506 250.447 68.695 250.238 69.126 250.004C69.7145 250.507 70.3689 250.928 71.0711 251.255C70.9005 251.687 70.7185 252.097 70.5593 252.483Z" fill="#00112C"/>
<path d="M76.1785 232.623C76.1785 232.623 76.497 231.485 76.5084 231.417C76.6221 230.553 76.3491 228.812 75.4733 228.391C75.326 228.322 75.1656 228.286 75.003 228.284C74.8403 228.282 74.6792 228.315 74.5304 228.381C74.3816 228.447 74.2487 228.543 74.1405 228.665C74.0324 228.787 73.9516 228.93 73.9035 229.085C73.8228 229.427 73.8176 229.782 73.8883 230.126C73.9591 230.47 74.104 230.794 74.313 231.076C74.8571 231.679 75.4854 232.2 76.1785 232.623Z" fill="#00112C"/>
<path d="M330.056 279.317V65.6501" stroke="#00112C" stroke-opacity="0.5" stroke-linecap="round" stroke-linejoin="round"/>
<path d="M138.957 279.317V66.9811" stroke="#00112C" stroke-opacity="0.5" stroke-linecap="round" stroke-linejoin="round"/>
<path d="M16.9604 174.429H413.366" stroke="#00112C" stroke-opacity="0.5" stroke-linecap="round" stroke-linejoin="round"/>
<path d="M194.739 135.185L189.802 138.222" stroke="#00112C" stroke-opacity="0.5" stroke-width="0.5" stroke-linecap="round" stroke-linejoin="round"/>
<path d="M278.072 83.8273L201.382 131.09" stroke="#00112C" stroke-opacity="0.5" stroke-width="0.5" stroke-linecap="round" stroke-linejoin="round"/>
<path d="M288.195 87.0237L226.748 124.879" stroke="#00112C" stroke-opacity="0.5" stroke-width="0.5" stroke-linecap="round" stroke-linejoin="round"/>
<path d="M315.029 70.4845L296.465 81.9163" stroke="#00112C" stroke-opacity="0.5" stroke-width="0.5" stroke-linecap="round" stroke-linejoin="round"/>
<path d="M137.819 144.672C154.781 144.672 168.532 130.921 168.532 113.96C168.532 96.9976 154.781 83.2472 137.819 83.2472C120.857 83.2472 107.107 96.9976 107.107 113.96C107.107 130.921 120.857 144.672 137.819 144.672Z" fill="#00112C"/>
<path d="M137.819 140.6C152.532 140.6 164.459 128.672 164.459 113.96C164.459 99.2466 152.532 87.3195 137.819 87.3195C123.106 87.3195 111.179 99.2466 111.179 113.96C111.179 128.672 123.106 140.6 137.819 140.6Z" fill="white"/>
<path d="M120.541 118.862L137.82 113.959V89.7877" stroke="#00112C" stroke-opacity="0.5" stroke-width="2" stroke-miterlimit="10"/>
<path d="M414.628 363.924H422.193" stroke="#263238" stroke-linecap="round" stroke-linejoin="round"/>
<path d="M1.31982 363.924H404.368" stroke="#263238" stroke-linecap="round" stroke-linejoin="round"/>
<path d="M223.04 283.139C223.04 283.139 149.751 280.648 142.278 297.301C134.804 313.954 142.278 363.924 142.278 363.924H256.368C256.368 363.924 272.68 302.021 263.58 293.683C254.48 285.346 223.04 283.139 223.04 283.139Z" fill="#00112C" stroke="#00112C" stroke-miterlimit="10"/>
<path d="M231.958 163.145C231.958 163.145 227.976 161.302 225.656 163.645C223.335 165.988 221.413 167.206 219.616 167.308C217.819 167.41 213.485 166.114 212.245 169.424C211.005 172.734 208.662 172.484 207.126 172.904C205.591 173.325 200.677 174.815 200.472 176.795C200.267 178.774 200.597 181.345 198.766 181.766C196.934 182.186 192.487 181.982 191.872 185.064C191.619 186.388 191.051 187.631 190.218 188.69C189.385 189.748 188.31 190.592 187.083 191.15C185.229 191.821 181.396 191.15 181.078 194.562C180.759 197.975 180.679 201.387 180.679 201.387L178.564 204.595C178.564 204.595 175.083 206.529 175.925 210.044C176.766 213.558 180.099 215.902 176.209 218.939C172.319 221.976 169.794 223.489 171.591 226.185C173.388 228.881 176.38 228.96 175.765 232.043C175.151 235.125 170.886 238.981 175.492 240.585C180.099 242.189 181.362 241.473 180.782 244.271C180.202 247.069 183.478 249.958 184.956 250.129C186.435 250.3 185.775 250.789 186.913 254.326C187.294 255.533 188.015 256.604 188.989 257.411C189.964 258.218 191.15 258.727 192.407 258.876C193.544 259.001 195.114 258.58 196.957 260.776C198.8 262.971 216.931 278.248 236.769 279.977C248.992 281.243 261.333 279.245 272.532 274.187C276.57 272.594 280.745 269.637 280.711 267.021C280.676 264.404 286.045 264.416 288.047 262.334C290.049 260.253 290.425 259.434 290.425 256.578C290.425 253.723 290.698 250.891 291.79 248.991C292.882 247.092 294.167 246.091 293.871 243.202C293.576 240.312 295.737 236.536 297.09 234.955C298.444 233.374 299.855 231.235 297.307 226.992C294.759 222.749 293.667 221.76 294.611 218.427C295.555 215.094 297.068 211.818 294.963 209.031C293.235 206.759 292.46 203.903 292.802 201.069C293.03 198.794 294.679 197.258 291.312 195.199C287.945 193.14 287.968 190.001 287.513 188.522C287.058 187.043 287.865 185.11 283.907 183.005C281.148 181.57 279.049 179.125 278.049 176.18C277.344 174.395 275.296 171.039 271.815 170.118C268.335 169.196 266.537 169.287 264.171 166.193C261.805 163.099 259.621 160.585 256.425 160.256C253.229 159.926 253.445 160.256 248.645 160.608C245.937 160.936 243.19 160.544 240.682 159.471C239.533 159.05 235.984 155.831 231.958 163.145Z" fill="#00112C" stroke="#00112C" stroke-linecap="round" stroke-linejoin="round"/>
<path d="M239.101 169.913C239.101 169.913 229.808 174.736 228.773 177.875C227.738 181.015 222.573 177.875 218.785 182.004C214.998 186.134 216.374 190.615 212.233 192.344C208.093 194.073 199.494 194.062 199.152 199.579C198.811 205.096 198.458 208.531 195.74 211.283C193.021 214.036 189.54 214.696 191.952 218.518C194.363 222.34 195.74 224.376 192.293 228.858C188.847 233.339 182.989 234.704 188.164 239.527C193.34 244.35 196.775 244.703 194.705 248.138C192.634 251.573 197.799 253.314 199.186 253.996M180.202 219.906C182.613 218.188 179.167 211.636 181.237 207.507C183.307 203.378 183.648 203.719 185.366 199.545C187.084 195.37 186.401 194.369 189.848 193.686C193.294 193.004 195.706 189.899 199.494 185.417C203.281 180.935 206.034 184.04 209.14 179.218C212.245 174.395 210.516 173.359 214.645 172.677C218.774 171.994 223.95 170.948 226.702 168.878C229.095 167.102 231.992 166.137 234.972 166.125C236.377 166.136 237.774 165.905 239.101 165.442C240.989 164.354 243.122 163.76 245.3 163.714C248.713 163.714 248.713 165.09 254.605 163.714L180.202 219.906Z" stroke="white" stroke-miterlimit="10"/>
<path d="M204.316 220.258C204.316 220.258 211.892 220.258 214.304 218.188C216.715 216.118 219.127 213.024 222.266 214.776C225.406 216.527 228.465 215.811 230.229 211.67C231.992 207.53 227.476 205.824 233.641 205.824C239.806 205.824 240.182 204.447 242.934 199.624C245.687 194.801 242.252 194.801 250.521 194.449C258.791 194.096 259.473 188.602 262.579 188.943C265.684 189.284 267.049 189.978 263.955 196.519C260.861 203.059 258.097 203.753 262.226 207.2C266.355 210.646 270.496 209.611 268.084 217.528C265.673 225.445 267.743 226.139 268.778 229.245C269.813 232.35 271.19 233.374 266.708 237.514C262.226 241.655 260.85 241.302 261.885 246.125C262.92 250.948 263.955 252.95 260.167 254.736C256.379 256.522 253.274 258.865 254.992 260.594C256.709 262.323 257.403 262.653 256.38 264.006" stroke="white" stroke-miterlimit="10"/>
<path d="M217.443 253.018C217.443 253.018 196.969 255.862 181.612 258.137C166.256 260.412 155.45 262.971 155.166 268.09C154.881 273.209 132.7 327.24 130.141 328.946C128.465 330.053 127.059 331.522 126.025 333.245C124.992 334.967 124.358 336.899 124.169 338.899C123.679 342.423 122.723 345.865 121.325 349.136C121.325 349.136 131.278 347.999 135.544 351.411C139.809 354.824 142.369 356.814 142.369 356.814C142.369 356.814 154.313 349.136 156.019 345.155C157.725 341.174 152.322 332.643 154.028 329.799C155.734 326.955 162.559 317.571 162.559 317.571C162.559 317.571 171.659 346.008 172.797 351.98C173.414 355.975 173.123 360.057 171.944 363.924H251.853V340.321C251.853 336.055 254.981 322.69 254.981 322.69C254.981 322.69 262.659 344.871 264.649 350.843C266.017 355.14 267.156 359.506 268.062 363.924H295.362C295.362 363.924 285.977 335.771 282.565 326.955C279.152 318.14 275.171 282.877 273.465 278.612C271.759 274.346 247.587 260.981 235.643 258.137C229.493 256.745 223.418 255.036 217.443 253.018Z" fill="#0ABF53"/>
<path opacity="0.3" d="M135.544 351.411C139.809 354.824 142.369 356.814 142.369 356.814C142.369 356.814 154.313 349.136 156.019 345.155C157.725 341.174 152.322 332.643 154.028 329.799C155.734 326.955 162.559 317.571 162.559 317.571L162.753 318.174L168.531 311.349C168.531 311.349 170.806 311.918 174.219 323.861C177.631 335.805 192.419 343.199 189.006 349.455C186.799 353.504 184.831 359.92 183.717 363.958H251.853V340.321C251.853 336.055 254.981 322.69 254.981 322.69C254.981 322.69 262.659 344.871 264.649 350.843C266.017 355.14 267.156 359.506 268.062 363.924H295.362C295.362 363.924 285.977 335.771 282.565 326.955C279.664 319.47 276.354 292.899 274.375 282.456C273.344 281.154 272.181 279.961 270.906 278.896C262.943 272.64 243.606 265.815 239.056 265.246C234.506 264.677 223.131 257.284 210.618 262.402C210.618 262.402 202.087 269.796 195.831 271.502C189.575 273.209 177.062 260.696 175.925 266.952C175.264 271.097 175.264 275.32 175.925 279.465C175.925 279.465 169.1 263.54 169.669 269.796C170.237 276.052 170.237 281.74 170.237 281.74C170.237 281.74 163.981 268.09 163.981 273.777C163.981 279.465 166.825 286.859 166.256 291.409C165.687 295.958 149.763 324.396 148.056 327.24C146.35 330.083 146.919 335.316 144.928 339.24C143.657 341.628 141.52 343.439 138.956 344.302C138.956 344.302 140.663 336.908 134.406 337.477C128.15 338.046 121.325 349.136 121.325 349.136C121.325 349.136 131.278 347.999 135.544 351.411Z" fill="black"/>
<path d="M217.443 253.018C217.443 253.018 196.969 255.862 181.612 258.137C166.256 260.412 155.45 262.971 155.166 268.09C154.881 273.209 132.7 327.24 130.141 328.946C128.465 330.053 127.059 331.522 126.025 333.245C124.992 334.967 124.358 336.899 124.169 338.899C123.679 342.423 122.723 345.865 121.325 349.136C121.325 349.136 131.278 347.999 135.544 351.411C139.809 354.824 142.369 356.814 142.369 356.814C142.369 356.814 154.313 349.136 156.019 345.155C157.725 341.174 152.322 332.643 154.028 329.799C155.734 326.955 162.559 317.571 162.559 317.571C162.559 317.571 171.659 346.008 172.797 351.98C173.414 355.975 173.123 360.057 171.944 363.924H251.853V340.321C251.853 336.055 254.981 322.69 254.981 322.69C254.981 322.69 262.659 344.871 264.649 350.843C266.017 355.14 267.156 359.506 268.062 363.924H295.362C295.362 363.924 285.977 335.771 282.565 326.955C279.152 318.14 275.171 282.877 273.465 278.612C271.759 274.346 247.587 260.981 235.643 258.137C229.493 256.745 223.418 255.036 217.443 253.018V253.018Z" stroke="#00112C" stroke-linecap="round" stroke-linejoin="round"/>
<path d="M223.131 301.362C223.131 301.362 225.633 326.762 224.575 337.306C223.517 347.851 219.832 355.768 221.413 363.15" stroke="#00112C" stroke-linecap="round" stroke-linejoin="round"/>
<path d="M257.255 305.058L261.805 295.39" stroke="#00112C" stroke-linecap="round" stroke-linejoin="round"/>
<path d="M214.884 250.743C214.884 250.743 211.756 252.734 211.187 254.724C210.618 256.715 206.068 262.118 204.078 270.08C202.087 278.043 203.225 292.546 204.647 289.134C206.068 285.721 209.765 278.327 211.187 276.621C212.609 274.915 212.893 277.19 214.031 282.024C215.168 286.859 223.131 301.362 223.131 301.362C223.131 301.362 229.103 287.996 232.515 286.005C235.928 284.015 237.349 277.474 237.349 277.474C237.349 277.474 240.762 294.537 242.753 294.537C244.743 294.537 245.596 281.455 244.743 273.493C243.89 265.531 240.193 255.862 237.918 252.734C235.643 249.606 225.975 239.084 214.884 250.743Z" fill="white" stroke="#00112C" stroke-linecap="round" stroke-linejoin="round"/>
<path d="M215.168 249.037C215.168 249.037 214.031 271.218 215.737 280.887C217.443 290.555 221.709 304.774 223.131 301.362C224.553 297.949 233.653 281.171 235.074 273.493C236.237 268.025 237.952 262.689 240.193 257.568C240.193 257.568 223.131 259.559 215.168 249.037Z" fill="white" stroke="#00112C" stroke-linecap="round" stroke-linejoin="round"/>
<path d="M256.551 198.817C256.551 198.817 251.591 200.238 250.351 203.002C249.111 205.767 248.076 205.983 244.937 208.872C241.797 211.761 240.83 211.34 238.351 213.661C235.871 215.981 233.96 215.777 231.037 216.118C228.113 216.459 225.565 216.209 224.212 217.028C222.905 217.732 221.552 218.348 220.162 218.871C220.162 218.871 218.354 217.733 216.954 222.067C215.555 226.401 213.872 236.524 214.907 242.087C215.942 247.649 220.06 260.912 226.475 264.143C232.891 267.373 248.383 257.056 252.365 252.654C256.346 248.252 264.559 227.561 264.877 224.069C265.196 220.577 259.804 213.922 258.791 211.249C257.779 208.576 259.212 207.12 257.222 204.663C255.231 202.206 256.551 198.817 256.551 198.817Z" fill="white" stroke="#00112C" stroke-linecap="round" stroke-linejoin="round"/>
<path d="M240.591 242.792C240.591 242.792 239.681 244.373 236.531 244.055C233.38 243.736 232.14 241.359 232.504 239.505" stroke="#00112C" stroke-linecap="round" stroke-linejoin="round"/>
<path d="M228.386 245.101C231.343 247.659 235.102 249.1 239.01 249.173" stroke="#00112C" stroke-linecap="round" stroke-linejoin="round"/>
<path d="M234.403 226.446L233.197 229.131C233.197 229.131 229.08 230.951 225.337 225.525" stroke="#00112C" stroke-linecap="round" stroke-linejoin="round"/>
<path d="M253.343 233.795L252.342 236.308C252.342 236.308 247.178 237.446 245.517 233.192" stroke="#00112C" stroke-linecap="round" stroke-linejoin="round"/>
<path d="M247.655 224.99C247.655 224.99 256.209 221.748 258.587 229.665" stroke="#00112C" stroke-linecap="round" stroke-linejoin="round"/>
<path d="M238.259 221.612C238.259 221.612 235.245 214.571 226.884 217.642" stroke="#00112C" stroke-linecap="round" stroke-linejoin="round"/>
<path d="M233.198 229.131C233.198 229.131 231.639 229.722 228.386 228.642C227.43 228.321 226.555 227.799 225.819 227.11C225.083 226.421 224.504 225.582 224.121 224.649C224.121 224.649 224.098 232.134 233.198 229.131Z" fill="#00112C"/>
<path d="M253.343 236.809C253.343 236.809 251.784 237.4 248.531 236.32C247.576 235.999 246.7 235.476 245.964 234.788C245.228 234.099 244.649 233.26 244.266 232.327C244.266 232.327 244.243 239.8 253.343 236.809Z" fill="#00112C"/>
<path d="M162.559 317.571C162.559 317.571 172.228 301.93 177.346 291.124L162.559 317.571Z" fill="white"/>
<path d="M162.559 317.571C162.559 317.571 172.228 301.93 177.346 291.124" stroke="#00112C" stroke-linecap="round" stroke-linejoin="round"/>
<path d="M169.953 306.196C174.328 303.34 178.018 299.553 180.759 295.105" stroke="#00112C" stroke-linecap="round" stroke-linejoin="round"/>
<path d="M109.381 373.308H168.156L200.187 395.114H132.7L109.381 373.308Z" fill="white" stroke="#00112C" stroke-linecap="round" stroke-linejoin="round"/>
<path d="M185.025 390.37H137.819" stroke="#00112C" stroke-linecap="round" stroke-linejoin="round"/>
<path d="M180.475 385.821H133.269" stroke="#00112C" stroke-linecap="round" stroke-linejoin="round"/>
<path d="M175.925 381.271H128.719" stroke="#00112C" stroke-linecap="round" stroke-linejoin="round"/>
<path d="M68.4316 386.958H127.206L159.238 408.764H91.7503L68.4316 386.958Z" fill="white" stroke="#00112C" stroke-linecap="round" stroke-linejoin="round"/>
<path d="M144.075 404.02H96.8691" stroke="#00112C" stroke-linecap="round" stroke-linejoin="round"/>
<path d="M139.525 399.47H92.3188" stroke="#00112C" stroke-linecap="round" stroke-linejoin="round"/>
<path d="M134.975 394.92H87.769" stroke="#00112C" stroke-linecap="round" stroke-linejoin="round"/>
<path d="M151.093 362.309C151.093 362.309 145.781 354.346 142.562 349.421C139.343 344.495 132.324 341.083 126.068 342.596C119.812 344.109 116.775 349.796 116.775 355.87C116.775 361.945 117.344 366.858 123.975 370.464C130.607 374.07 145.406 375.958 145.406 375.958C145.406 375.958 156.587 380.133 151.093 362.309Z" fill="white" stroke="#00112C" stroke-linecap="round" stroke-linejoin="round"/>
<path d="M145.565 360.523C145.565 360.523 138.296 362.798 137.796 365.528C137.295 368.258 136.544 374.309 137.045 377.062C137.545 379.815 144.063 379.576 148.579 379.576C153.095 379.576 155.347 375.026 154.346 373.558C153.345 372.091 149.33 371.283 147.828 367.791C146.86 365.44 146.102 363.008 145.565 360.523Z" fill="white" stroke="#00112C" stroke-linecap="round" stroke-linejoin="round"/>
<path d="M151.628 362.9C150.559 360.5 149.205 358.248 148.602 356.939C146.976 353.436 143.427 353.288 143.233 357.724C143.12 360.238 147.783 374.923 151.833 371.545C154.028 369.725 153.084 366.165 151.628 362.9Z" fill="white" stroke="#00112C" stroke-linecap="round" stroke-linejoin="round"/>
<path d="M138.046 366.54C138.046 366.54 138.297 369.543 144.314 373.058C150.331 376.573 152.083 375.333 154.096 375.333" fill="white"/>
<path d="M138.046 366.54C138.046 366.54 138.297 369.543 144.314 373.058C150.331 376.573 152.083 375.333 154.096 375.333" stroke="#00112C" stroke-linecap="round" stroke-linejoin="round"/>
<path d="M137.045 372.557C137.045 372.557 137.784 377.494 151.571 378.495L137.045 372.557Z" fill="white"/>
<path d="M137.045 372.557C137.045 372.557 137.784 377.494 151.571 378.495" stroke="#00112C" stroke-linecap="round" stroke-linejoin="round"/>
<path d="M155.746 375.583L143.87 341.458C143.797 341.246 143.766 341.022 143.779 340.797C143.793 340.573 143.85 340.354 143.949 340.152C144.047 339.95 144.184 339.77 144.352 339.621C144.52 339.473 144.716 339.358 144.928 339.286C145.14 339.212 145.365 339.181 145.589 339.194C145.813 339.208 146.032 339.265 146.234 339.364C146.436 339.462 146.617 339.599 146.765 339.767C146.914 339.935 147.028 340.131 147.101 340.343L158.931 374.502L155.746 375.583Z" fill="#00112C"/>
<path d="M155.746 375.617L158.953 379.724L158.965 374.502L155.746 375.617Z" fill="white"/>
<path d="M157.793 378.233L158.93 379.724V377.858C158.538 377.937 158.156 378.063 157.793 378.233Z" fill="#00112C"/>
<path d="M147.101 340.321C146.95 339.892 146.635 339.541 146.225 339.345C145.816 339.149 145.345 339.123 144.917 339.274C144.488 339.425 144.137 339.74 143.941 340.149C143.745 340.559 143.719 341.03 143.87 341.458L145.008 344.871L148.193 343.654L147.101 340.321Z" fill="white"/>
<path d="M151.469 353.777C151.469 353.777 154.881 352.458 156.587 353.777C158.294 355.097 159.238 358.521 159.238 362.502C159.238 366.483 161.137 371.602 157.725 371.409C154.312 371.215 151.469 353.777 151.469 353.777Z" fill="white" stroke="#00112C" stroke-linecap="round" stroke-linejoin="round"/>
<path d="M226.657 384.308L200.756 367.996H299.718L336.607 384.308H226.657Z" fill="white" stroke="#00112C" stroke-linecap="round" stroke-linejoin="round"/>
<path d="M336.607 384.308H226.657L239.318 305.821H349.279L336.607 384.308Z" fill="white" stroke="#00112C" stroke-linecap="round" stroke-linejoin="round"/>
<path d="M342.818 345.849C324.197 350.08 308.136 345.849 276.263 351.025C245.039 356.052 232.413 370.282 227.351 379.962L226.657 384.308H336.607L342.818 345.849Z" fill="#00112C" stroke="#00112C" stroke-miterlimit="10"/>
<path d="M342.932 355.518C342.932 355.518 336.698 356.314 334.457 358.873C332.216 361.433 333.98 362.399 335.902 362.399C337.824 362.399 344.217 362.399 347.095 358.987C349.427 356.303 347.891 355.199 342.932 355.518Z" fill="white" stroke="#00112C" stroke-linecap="round" stroke-linejoin="round"/>
<path d="M340.85 373.752C340.85 373.752 334.617 374.548 332.376 377.107C330.135 379.667 331.898 380.622 333.82 380.622C335.743 380.622 342.135 380.622 345.013 377.267C347.357 374.537 345.81 373.433 340.85 373.752Z" fill="white" stroke="#00112C" stroke-linecap="round" stroke-linejoin="round"/>
<path d="M341.499 368.952C341.499 368.952 335.254 369.748 333.013 372.307C330.772 374.867 332.535 375.833 334.458 375.833C336.38 375.833 342.773 375.833 345.65 372.421C347.994 369.748 346.447 368.633 341.499 368.952Z" fill="white" stroke="#00112C" stroke-linecap="round" stroke-linejoin="round"/>
<path d="M341.658 363.514C341.658 363.514 335.413 364.31 333.183 366.87C330.954 369.429 332.694 370.396 334.616 370.396C336.539 370.396 342.932 370.396 345.809 366.984C348.153 364.299 346.617 363.196 341.658 363.514Z" fill="white" stroke="#00112C" stroke-linecap="round" stroke-linejoin="round"/>
</svg>
